<svg xmlns="http://www.w3.org/2000/svg" width="220.709" height="74.718" viewBox="0 0 220.709 74.718"><defs><style>.a{fill:#fff;}</style></defs><g transform="translate(-186.999 -4757.999)"><path class="a" d="M-13366.294,5064.717H-13513a36.768,36.768,0,0,1-14.4-2.907,36.9,36.9,0,0,1-11.762-7.93,36.857,36.857,0,0,1-7.93-11.76,36.765,36.765,0,0,1-2.908-14.4V5027a36.766,36.766,0,0,1,2.908-14.4,36.874,36.874,0,0,1,7.93-11.761,36.886,36.886,0,0,1,11.762-7.93A36.764,36.764,0,0,1-13513,4990h146.705a36.764,36.764,0,0,1,14.4,2.908,36.886,36.886,0,0,1,11.762,7.93,36.874,36.874,0,0,1,7.93,11.761,36.767,36.767,0,0,1,2.908,14.4v.718a36.765,36.765,0,0,1-2.908,14.4,36.857,36.857,0,0,1-7.93,11.76,36.9,36.9,0,0,1-11.762,7.93A36.768,36.768,0,0,1-13366.294,5064.717Zm-67.4-30.316h13.722l2.839,6.6h5.122l-12.763-28.2h-4.2l-12.759,28.2h5.2l2.84-6.6Zm16.84-21.6,11.4,15.2v13h5.162v-13l11.439-15.2h-5.838l-8.2,11.079-8.157-11.079Zm-43.8,0V5041h18.319v-4.241h-13.16V5012.8Zm-26.4,0V5041h5.158v-10.96h7.162a10.16,10.16,0,0,0,7.039-2.282,8.173,8.173,0,0,0,2.52-6.359,8.109,8.109,0,0,0-2.52-6.339,10.206,10.206,0,0,0-7.039-2.261Zm65.359,17.6h-10.321l5.159-12,5.161,12Zm-53.683-4.319h-6.519v-9.28h6.519a6.039,6.039,0,0,1,4,1.139,4.411,4.411,0,0,1,1.319,3.5,4.389,4.389,0,0,1-1.331,3.479A5.957,5.957,0,0,1-13475.372,5026.08Z" transform="translate(13737 -232)"/></g></svg>