<svg xmlns="http://www.w3.org/2000/svg" width="132.341" height="131.186" viewBox="0 0 132.341 131.186"><defs><style>.a,.b{fill:none;stroke:#e30613;stroke-linecap:round;stroke-width:6px;}.a{stroke-miterlimit:10;}.b{stroke-linejoin:round;}</style></defs><g transform="translate(2884.691 -1392.346)"><g transform="translate(-2881.691 1395.346)"><line class="a" y2="16.186" transform="translate(62.348 105.961)"/><line class="a" y2="2.664" transform="translate(62.348 92.272)"/><line class="a" y2="18.999" transform="translate(62.348 1.114)"/><line class="a" x2="14.352" transform="translate(108.513 61.631)"/><line class="a" x2="2.683" transform="translate(96.716 61.631)"/><line class="a" x2="18.839" transform="translate(1.831 61.631)"/><path class="b" d="M-2789.6,1403.85l8.527-8.5,8.481,8.5" transform="translate(2843.448 -1395.346)"/><path class="b" d="M-2772.565,1594.9l-8.527,8.5-8.481-8.5" transform="translate(2843.435 -1478.221)"/><path class="b" d="M-2729.74,1550.878l-8.527,8.5-8.481-8.5" transform="translate(2825.65 -1459.938)"/><path class="b" d="M-2833.341,1443.6l8.527-8.5,8.481,8.5" transform="translate(2861.611 -1411.855)"/><path class="b" d="M-2724.544,1443.351l8.5,8.527-8.5,8.481" transform="translate(2816.429 -1415.282)"/><path class="b" d="M-2680.158,1486.286l8.5,8.527-8.5,8.481" transform="translate(2797.996 -1433.113)"/><path class="b" d="M-2873.187,1503.325l-8.5-8.527,8.5-8.481" transform="translate(2881.691 -1433.126)"/><path class="b" d="M-2832.109,1546.07l-8.5-8.527,8.5-8.481" transform="translate(2864.632 -1450.878)"/><path class="a" d="M-2804.921,1473.3a25.056,25.056,0,0,1-13.875-22.43v-9.885" transform="translate(2855.571 -1414.301)"/><path class="a" d="M-2775.06,1482.953A25.058,25.058,0,0,1-2750,1457.9h9.885" transform="translate(2837.408 -1421.322)"/><path class="a" d="M-2755.615,1504.884a25.056,25.056,0,0,1,13.688,22.336v9.886" transform="translate(2829.332 -1440.837)"/><path class="a" d="M-2799.879,1500.83a25.058,25.058,0,0,1-25.058,25.057h-9.885" transform="translate(2862.227 -1439.153)"/></g><line class="a" x2="1.728" transform="translate(-2850.896 1456.977)"/><line class="a" y2="2.363" transform="translate(-2819.343 1425.913)"/></g></svg>